<svg width="54" height="54" viewBox="0 0 54 54" fill="none" xmlns="http://www.w3.org/2000/svg">
<path fill-rule="evenodd" clip-rule="evenodd" d="M47.5895 0.017395H6.41918C2.8774 0.017395 0.00487757 2.88604 5.17476e-05 6.42782V47.5376C-0.00679713 49.2445 0.666448 50.8839 1.87101 52.0933C3.07556 53.3027 4.71223 53.9826 6.41918 53.9826H47.5895C49.2949 53.9803 50.9294 53.2994 52.132 52.0903C53.3347 50.8811 54.0068 49.243 54 47.5376V6.42782C53.9951 2.88941 51.1279 0.0221605 47.5895 0.017395ZM23.2887 38.8865C23.2864 39.457 23.057 40.0032 22.6511 40.4041C22.2453 40.8051 21.6965 41.0279 21.1259 41.0234H12.1289C10.9521 41.0186 10.0007 40.0633 10.0007 38.8865V12.1116C10.0007 10.9348 10.9521 9.97951 12.1289 9.97474H21.1259C22.3041 9.97949 23.258 10.9334 23.2628 12.1116L23.2887 38.8865ZM44.0512 26.5934C44.0512 27.1646 43.8226 27.7121 43.4162 28.1136C43.0098 28.5151 42.4596 28.7371 41.8884 28.7304H32.8914C31.7132 28.7255 30.7593 27.7716 30.7546 26.5934V12.1116C30.7593 10.9334 31.7132 9.97949 32.8914 9.97474H41.8884C43.0652 9.97951 44.0166 10.9348 44.0166 12.1116L44.0512 26.5934Z" fill="url(#paint0_linear_10701_239)"/>
<defs>
<linearGradient id="paint0_linear_10701_239" x1="27.026" y1="53.9826" x2="27.026" y2="0.017395" gradientUnits="userSpaceOnUse">
<stop stop-color="#0052CC"/>
<stop offset="1" stop-color="#2684FF"/>
</linearGradient>
</defs>
</svg>
