<svg width="30" height="30" viewBox="0 0 30 30" fill="none" xmlns="http://www.w3.org/2000/svg">
<path d="M15 0C6.72 0 0 6.72 0 15C0 23.28 6.72 30 15 30C23.28 30 30 23.28 30 15C30 6.72 23.28 0 15 0ZM15 26.04C8.88 26.04 3.96 21.12 3.96 15C3.96 8.88 8.88 3.96 15 3.96C21.12 3.96 26.04 8.88 26.04 15C26.04 21.12 21.12 26.04 15 26.04Z" fill="#F12E45"/>
<path d="M18.72 14.4C20.4431 14.4 21.84 13.0031 21.84 11.28C21.84 9.55686 20.4431 8.16 18.72 8.16C16.9969 8.16 15.6 9.55686 15.6 11.28C15.6 13.0031 16.9969 14.4 18.72 14.4Z" fill="#F12E45"/>
<path d="M18.72 21.84C20.4431 21.84 21.84 20.4431 21.84 18.72C21.84 16.9969 20.4431 15.6 18.72 15.6C16.9969 15.6 15.6 16.9969 15.6 18.72C15.6 20.4431 16.9969 21.84 18.72 21.84Z" fill="#F12E45"/>
<path d="M11.28 21.84C13.0031 21.84 14.4 20.4431 14.4 18.72C14.4 16.9969 13.0031 15.6 11.28 15.6C9.55688 15.6 8.16002 16.9969 8.16002 18.72C8.16002 20.4431 9.55688 21.84 11.28 21.84Z" fill="#F12E45"/>
<path d="M11.28 14.4C13.0031 14.4 14.4 13.0031 14.4 11.28C14.4 9.55686 13.0031 8.16 11.28 8.16C9.55688 8.16 8.16002 9.55686 8.16002 11.28C8.16002 13.0031 9.55688 14.4 11.28 14.4Z" fill="#F12E45"/>
</svg>
