<svg width="42" height="40" viewBox="0 0 42 40" fill="none" xmlns="http://www.w3.org/2000/svg">
<path fill-rule="evenodd" clip-rule="evenodd" d="M32.8658 21.1396C27.8211 21.1396 23.7316 25.222 23.7316 30.2581C23.7316 35.2939 27.8211 39.3764 32.8658 39.3764C37.9106 39.3764 42 35.2939 42 30.2581C42 25.222 37.9106 21.1396 32.8658 21.1396ZM9.13425 21.1403C4.08959 21.1403 0 25.222 0 30.2581C0 35.2939 4.08959 39.3764 9.13425 39.3764C14.1791 39.3764 18.2689 35.2939 18.2689 30.2581C18.2689 25.222 14.1791 21.1403 9.13425 21.1403ZM30.1341 9.74159C30.1341 14.7778 26.0447 18.8606 21.0001 18.8606C15.9552 18.8606 11.8658 14.7778 11.8658 9.74159C11.8658 4.70641 15.9552 0.623627 21.0001 0.623627C26.0447 0.623627 30.1341 4.70641 30.1341 9.74159Z" fill="#F06A6A"/>
</svg>
