<svg width="48" height="54" viewBox="0 0 48 54" fill="none" xmlns="http://www.w3.org/2000/svg">
<path d="M41.911 10.3981C41.8736 10.1254 41.6354 9.97407 41.4376 9.9576C41.2414 9.94113 37.3972 9.88272 37.3972 9.88272C37.3972 9.88272 34.1821 6.76057 33.8645 6.44296C33.547 6.12536 32.9267 6.22124 32.6855 6.29315C32.6855 6.29315 32.0818 6.48042 31.0705 6.79353C30.9013 6.24522 30.6525 5.57104 30.2974 4.89389C29.1529 2.70959 27.4765 1.55452 25.4509 1.55154H25.4435C25.3026 1.55154 25.1633 1.56502 25.0225 1.577C24.9626 1.50509 24.9027 1.43468 24.8398 1.36576C23.9573 0.421934 22.8263 -0.0379963 21.4704 0.00245351C18.8547 0.0773607 16.2494 1.96652 14.137 5.32236C12.6509 7.68343 11.5198 10.6498 11.1992 12.9464C8.19538 13.8767 6.09497 14.5269 6.04853 14.5419C4.53241 15.0183 4.48448 15.0647 4.28672 16.494C4.1399 17.5741 0.172821 48.2502 0.172821 48.2502L33.4181 54L47.8272 50.4179C47.8272 50.4179 41.9485 10.6708 41.911 10.3981ZM29.4061 7.30889C28.6405 7.5456 27.7701 7.81527 26.8262 8.10741C26.8068 6.78305 26.6495 4.94033 26.0323 3.3478C28.0173 3.72384 28.9941 5.96956 29.4061 7.30889ZM25.0869 8.64673C23.3446 9.18603 21.4434 9.77481 19.5363 10.3651C20.0726 8.31115 21.0899 6.26619 22.3394 4.92535C22.8038 4.42647 23.4539 3.87066 24.224 3.55305C24.9476 5.06317 25.1049 7.20103 25.0869 8.64673ZM21.5228 1.74329C22.1371 1.72981 22.6539 1.86465 23.0959 2.15528C22.3888 2.52233 21.7056 3.04968 21.0644 3.73732C19.4029 5.52011 18.1295 8.28718 17.6217 10.9569C16.0381 11.4467 14.489 11.9277 13.0628 12.3682C13.9633 8.16584 17.4853 1.86015 21.5228 1.74329Z" fill="#95BF47"/>
<path d="M41.4376 9.9576C41.2414 9.94113 37.3972 9.88272 37.3972 9.88272C37.3972 9.88272 34.1821 6.76057 33.8645 6.44296C33.7462 6.32461 33.5874 6.26471 33.4195 6.23925L33.4211 53.9986L47.8272 50.4179C47.8272 50.4179 41.9485 10.6708 41.911 10.3981C41.8736 10.1254 41.6354 9.97407 41.4376 9.9576Z" fill="#5E8E3E"/>
<path d="M25.4329 17.3675L23.7596 23.6282C23.7596 23.6282 21.8929 22.7787 19.6801 22.918C16.4351 23.1233 16.4006 25.1698 16.4337 25.6837C16.6104 28.4836 23.9767 29.0949 24.3903 35.6538C24.7154 40.8134 21.6531 44.343 17.2411 44.6216C11.9452 44.9557 9.0298 41.8321 9.0298 41.8321L10.1519 37.059C10.1519 37.059 13.0867 39.2733 15.4358 39.125C16.97 39.0276 17.5183 37.7797 17.4628 36.8972C17.2321 33.2447 11.2336 33.4605 10.8546 27.4589C10.5354 22.4087 13.8524 17.2911 21.1707 16.8296C23.9902 16.6484 25.4329 17.3675 25.4329 17.3675Z" fill="white"/>
</svg>
