<svg width="54" height="44" viewBox="0 0 54 44" fill="none" xmlns="http://www.w3.org/2000/svg">
<path d="M53.6039 16.2126C51.0699 4.56237 37.108 -2.28853 22.414 0.906566C7.72007 4.10167 -2.13442 16.1396 0.396276 27.7865C2.92698 39.4334 16.8922 46.2909 31.5829 43.0925C46.2735 39.8941 56.1346 27.8727 53.6039 16.2126ZM27.0018 32.7382C24.8791 32.7382 22.8041 32.1084 21.0392 30.9284C19.2743 29.7485 17.8987 28.0713 17.0864 26.1091C16.2741 24.1468 16.0616 21.9876 16.4757 19.9045C16.8898 17.8214 17.9119 15.9079 19.4129 14.4061C20.9138 12.9043 22.8261 11.8815 24.908 11.4672C26.9898 11.0528 29.1478 11.2655 31.1088 12.0782C33.0699 12.891 34.746 14.2674 35.9253 16.0334C37.1046 17.7994 37.734 19.8756 37.734 21.9995C37.734 23.4098 37.4564 24.8062 36.9171 26.1091C36.3778 27.4119 35.5872 28.5958 34.5906 29.5929C33.594 30.5901 32.4109 31.3811 31.1088 31.9208C29.8067 32.4605 28.4111 32.7382 27.0018 32.7382Z" fill="#008C99"/>
<path d="M29.3801 6.96532C26.3325 6.96598 23.3536 7.87083 20.82 9.56545C18.2863 11.2601 16.3118 13.6684 15.146 16.4858C13.9802 19.3033 13.6755 22.4034 14.2704 25.3941C14.8654 28.3848 16.3333 31.1318 18.4884 33.2878C20.6436 35.4438 23.3893 36.912 26.3784 37.5067C29.3674 38.1013 32.4656 37.7958 35.2811 36.6287C38.0966 35.4616 40.503 33.4853 42.1961 30.9498C43.8892 28.4143 44.7928 25.4334 44.7928 22.384C44.7928 20.3589 44.3942 18.3537 43.6196 16.4828C42.8449 14.6119 41.7096 12.912 40.2783 11.4802C38.8471 10.0484 37.148 8.91271 35.278 8.13805C33.4081 7.36338 31.404 6.96489 29.3801 6.96532ZM27.0051 31.3793C25.151 31.3793 23.3386 30.8292 21.797 29.7986C20.2555 28.7679 19.054 27.303 18.3444 25.589C17.6349 23.8751 17.4493 21.9891 17.811 20.1696C18.1727 18.3501 19.0655 16.6788 20.3765 15.367C21.6875 14.0552 23.3578 13.1619 25.1763 12.8C26.9947 12.438 28.8795 12.6238 30.5924 13.3337C32.3053 14.0437 33.7694 15.2459 34.7994 16.7884C35.8295 18.3309 36.3793 20.1444 36.3793 21.9995C36.3793 24.4866 35.3921 26.8719 33.6348 28.6309C31.8775 30.3898 29.4907 31.3785 27.0051 31.3793Z" fill="#70CCD3"/>
</svg>
