<svg width="50" height="54" viewBox="0 0 50 54" fill="none" xmlns="http://www.w3.org/2000/svg">
<path d="M35.8224 0L33.3265 23.7994L29.0712 3.73404L15.6506 6.56535L19.865 26.6307L0.552368 30.734L3.98936 46.7371L37.991 54L45.7651 36.5608L49.4476 1.43617L35.8224 0ZM25.0614 34.5502C24.3658 35.2067 23.4656 35.1246 22.4427 34.7964C21.4607 34.4681 21.0515 33.3191 21.3789 31.8419C21.6653 30.7751 22.9337 30.6109 23.6293 30.6109C23.8748 30.6109 24.1203 30.652 24.3658 30.7751C24.8159 30.9802 25.5933 31.4316 25.7569 32.0882C26.0024 33.073 25.757 33.8936 25.0614 34.5502ZM34.9223 35.617C34.3903 36.5198 33.081 36.6429 31.7308 35.9863C30.8306 35.535 30.8306 34.4681 30.9534 33.7705C30.9943 33.4012 31.1579 33.0319 31.4034 32.7447C31.7308 32.3344 32.2627 31.8009 32.8355 31.8009C33.8584 31.7599 34.6768 32.2112 35.1678 33.0319C35.6587 33.8526 35.4132 34.7553 34.9223 35.617Z" fill="#00CCBC"/>
</svg>
