<svg width="42" height="42" viewBox="0 0 42 42" fill="none" xmlns="http://www.w3.org/2000/svg">
<path d="M41.9542 21C41.9542 32.5979 32.5727 42 21 42C9.42734 42 0.0457458 32.5979 0.0457458 21C0.0457458 9.4019 9.42734 0 21 0C32.5727 0 41.9542 9.4019 41.9542 21Z" fill="white"/>
<path d="M21 0C9.42734 0 0.0457458 9.4019 0.0457458 21C0.0457458 29.8967 5.56647 37.4995 13.3613 40.5593C13.1782 38.8978 13.0126 36.3425 13.4339 34.5286C13.8147 32.8897 15.8911 24.0903 15.8911 24.0903C15.8911 24.0903 15.2643 22.8322 15.2643 20.9724C15.2643 18.0524 16.9531 15.8723 19.0559 15.8723C20.8436 15.8723 21.7071 17.2175 21.7071 18.8304C21.7071 20.6323 20.5625 23.3261 19.9717 25.8225C19.4781 27.9127 21.0176 29.6172 23.0747 29.6172C26.799 29.6172 29.6618 25.6817 29.6618 20.0008C29.6618 14.9727 26.0568 11.4572 20.9091 11.4572C14.9469 11.4572 11.4473 15.939 11.4473 20.5706C11.4473 22.3755 12.141 24.3109 13.0067 25.3631C13.178 25.571 13.2031 25.7532 13.1521 25.9654C12.993 26.6287 12.6395 28.055 12.5701 28.347C12.4787 28.7314 12.2664 28.813 11.8693 28.6278C9.25226 27.4069 7.616 23.5723 7.616 20.4923C7.616 13.8679 12.4186 7.78424 21.4613 7.78424C28.7303 7.78424 34.3792 12.9754 34.3792 19.9129C34.3792 27.1503 29.8259 32.9749 23.5059 32.9749C21.3825 32.9749 19.3864 31.8694 18.7031 30.5635C18.7031 30.5635 17.6524 34.573 17.3976 35.5556C16.9246 37.3797 15.6475 39.666 14.7933 41.0609C16.7539 41.6693 18.8398 42 21 42C32.5727 42 41.9542 32.5979 41.9542 21C41.9542 9.4019 32.5727 0 21 0Z" fill="#E60023"/>
</svg>
