<svg width="30" height="30" viewBox="0 0 30 30" fill="none" xmlns="http://www.w3.org/2000/svg">
<path d="M8.90366 13.8433C8.81458 13.7266 8.69685 13.6349 8.5619 13.5771C8.42694 13.5192 8.27934 13.4972 8.13338 13.5132C7.98742 13.5291 7.84806 13.5825 7.7288 13.6682C7.60954 13.7538 7.51443 13.8688 7.45267 14.002L0.0934161 28.7206C0.0261947 28.8545 -0.0056759 29.0035 0.000828763 29.1532C0.00733342 29.303 0.0519975 29.4486 0.130583 29.5762C0.209168 29.7039 0.319067 29.8093 0.44985 29.8826C0.580634 29.9558 0.727964 29.9944 0.877859 29.9947H11.1255C11.2914 29.9979 11.4546 29.9523 11.5948 29.8637C11.735 29.775 11.8462 29.6471 11.9145 29.4959C14.1227 24.9616 12.7851 17.9923 8.90366 13.8433Z" fill="url(#paint0_linear_10701_215)"/>
<path d="M14.3041 0.476071C12.4695 3.29835 11.4004 6.54919 11.2016 9.90946C11.0029 13.2697 11.6814 16.6239 13.1705 19.6428L18.1356 29.4959C18.208 29.6423 18.3197 29.7657 18.4583 29.8522C18.5968 29.9387 18.7567 29.9849 18.9201 29.9856H29.1677C29.3113 29.9738 29.4501 29.9279 29.5724 29.8517C29.6948 29.7755 29.7972 29.6713 29.8713 29.5476C29.9453 29.4239 29.9888 29.2844 29.9981 29.1406C30.0074 28.9967 29.9823 28.8528 29.9249 28.7206L15.8004 0.476071C15.7328 0.335042 15.6266 0.216005 15.4943 0.132686C15.3619 0.0493661 15.2087 0.00515747 15.0522 0.00515747C14.8958 0.00515747 14.7426 0.0493661 14.6102 0.132686C14.4779 0.216005 14.3717 0.335042 14.3041 0.476071Z" fill="#2684FF"/>
<defs>
<linearGradient id="paint0_linear_10701_215" x1="29.9097" y1="4.74721" x2="17.6222" y2="31.8014" gradientUnits="userSpaceOnUse">
<stop stop-color="#0052CC"/>
<stop offset="0.92" stop-color="#2684FF"/>
</linearGradient>
</defs>
</svg>
